<svg width="97" height="80" viewBox="0 0 97 80" version="1.1" xmlns="http://www.w3.org/2000/svg" xmlns:xlink="http://www.w3.org/1999/xlink">
<title>Vector 2</title>
<desc>Created using Figma</desc>
<g id="Canvas" transform="translate(-6492 2284)">
<g id="Vector 2">
<use xlink:href="#path0_stroke" transform="matrix(1 0 0 -1 6493 -2205)" fill="#FFFFFF"/>
</g>
</g>
<defs>
<path id="path0_stroke" d="M 3.86525 9.80585L 3.77223 9.31458L 3.8541 10.3057L 3.86525 9.80585ZM 46.1416 1.47441L 46.2442 1.96379L 46.1416 1.47441ZM 0.0679671 9.80585L 0.35598 10.2146L 0.0679671 9.80585ZM 95.4942 77.9243C 93.8266 67.0308 84.787 50.1945 69.27 35.9362C 53.736 21.6623 31.663 9.92629 3.87641 9.30597L 3.8541 10.3057C 31.356 10.9197 53.2049 22.5322 68.5934 36.6725C 83.9989 50.8284 92.8825 67.4721 94.5058 78.0757L 95.4942 77.9243ZM 3.86525 9.80585C 3.95828 10.2971 3.95838 10.2971 3.95858 10.2971C 3.95878 10.297 3.95908 10.297 3.95948 10.2969C 3.96028 10.2967 3.96147 10.2965 3.96306 10.2962C 3.96623 10.2956 3.97098 10.2947 3.97728 10.2935C 3.98989 10.2911 4.00873 10.2876 4.03366 10.2828C 4.08353 10.2734 4.15776 10.2593 4.25526 10.2408C 4.45026 10.2038 4.73834 10.1491 5.11072 10.0783C 5.85549 9.93661 6.93748 9.73046 8.28649 9.47247C 10.9845 8.95651 14.7506 8.2332 19.0231 7.4038C 27.5674 5.74515 38.1395 3.6617 46.2442 1.96379L 46.0391 0.985038C 37.9421 2.68135 27.376 4.76362 18.8325 6.42213C 14.5611 7.25131 10.796 7.97444 8.09865 8.49027C 6.75001 8.74819 5.66834 8.95428 4.92387 9.09588C 4.55163 9.16668 4.26369 9.22136 4.06883 9.25834C 3.97139 9.27682 3.89723 9.29089 3.84743 9.30033C 3.82253 9.30505 3.80373 9.30861 3.79115 9.31099C 3.78486 9.31219 3.78013 9.31308 3.77697 9.31368C 3.77539 9.31398 3.7742 9.3142 3.77341 9.31435C 3.77302 9.31443 3.77272 9.31448 3.77253 9.31452C 3.77233 9.31456 3.77223 9.31458 3.86525 9.80585ZM 46.2442 1.96379C 46.9879 1.80797 47.55 1.65384 47.9299 1.49945C 48.1156 1.42397 48.2925 1.33488 48.4275 1.2229C 48.5493 1.1219 48.7597 0.894174 48.6965 0.562644C 48.641 0.271612 48.4072 0.119822 48.2872 0.054134C 48.1408 -0.0259745 47.9614 -0.086231 47.7731 -0.134782C 47.3912 -0.23326 46.866 -0.309945 46.231 -0.367427C 43.6867 -0.597713 39.0454 -0.547049 33.55 -0.063925C 28.0488 0.419701 21.6654 1.33896 15.6351 2.85586C 9.6131 4.3707 3.90388 6.4911 -0.220045 9.39713L 0.35598 10.2146C 4.33301 7.41204 9.90454 5.32854 15.8791 3.82565C 21.8454 2.32482 28.1744 1.41251 33.6375 0.932233C 39.1064 0.451449 43.6811 0.405869 46.1408 0.628502C 46.7568 0.684251 47.2193 0.755118 47.5234 0.833539C 47.6781 0.873438 47.7662 0.908967 47.8071 0.931359C 47.8744 0.968171 47.7477 0.925596 47.7142 0.749872C 47.673 0.53365 47.8203 0.427327 47.7891 0.453195C 47.7711 0.468087 47.7052 0.51133 47.5533 0.573045C 47.2582 0.693027 46.7664 0.832672 46.0391 0.985038L 46.2442 1.96379ZM -0.220045 9.39713C -0.409274 9.53048 -0.508479 9.73954 -0.499427 9.96408C -0.491998 10.1484 -0.413788 10.3059 -0.345509 10.4162C -0.204953 10.6433 0.0349075 10.8901 0.319063 11.143C 0.900671 11.6607 1.81432 12.3301 2.96627 13.1065C 5.27741 14.6643 8.61965 16.7006 12.3724 18.897C 19.8811 23.2918 29.0675 28.3476 35.0199 31.538L 35.4923 30.6566C 29.5465 27.4698 20.3718 22.4204 12.8775 18.034C 9.12868 15.8398 5.80892 13.8166 3.52519 12.2773C 2.37971 11.5052 1.51272 10.8667 0.983918 10.396C 0.712871 10.1548 0.565089 9.98734 0.504743 9.88986C 0.472571 9.83789 0.497015 9.85567 0.499762 9.9238C 0.504132 10.0322 0.449327 10.1488 0.35598 10.2146L -0.220045 9.39713Z"/>
</defs>
</svg>
