<svg width="20" height="20" viewBox="0 0 20 20" version="1.1" xmlns="http://www.w3.org/2000/svg" xmlns:xlink="http://www.w3.org/1999/xlink">
<title>Group 13</title>
<desc>Created using Figma</desc>
<g id="Canvas" transform="translate(-6493 1989)">
<g id="Group 13">
<g id="Rectangle 10 (Stroke)">
<use xlink:href="#path0_fill" transform="translate(6493 -1989)"/>
</g>
<g id="Ellipse 3 (Stroke)">
<use xlink:href="#path1_fill" transform="translate(6498.5 -1983.5)"/>
</g>
<g id="Ellipse 4">
<use xlink:href="#path2_fill" transform="translate(6507.5 -1986)"/>
</g>
</g>
</g>
<defs>
<path id="path0_fill" fill-rule="evenodd" d="M 16 2L 4 2C 2.89543 2 2 2.89543 2 4L 2 16C 2 17.1046 2.89543 18 4 18L 16 18C 17.1046 18 18 17.1046 18 16L 18 4C 18 2.89543 17.1046 2 16 2ZM 4 0C 1.79086 0 0 1.79086 0 4L 0 16C 0 18.2091 1.79086 20 4 20L 16 20C 18.2091 20 20 18.2091 20 16L 20 4C 20 1.79086 18.2091 0 16 0L 4 0Z"/>
<path id="path1_fill" fill-rule="evenodd" d="M 4.5 7C 5.88071 7 7 5.88071 7 4.5C 7 3.11929 5.88071 2 4.5 2C 3.11929 2 2 3.11929 2 4.5C 2 5.88071 3.11929 7 4.5 7ZM 4.5 9C 6.98528 9 9 6.98528 9 4.5C 9 2.01472 6.98528 0 4.5 0C 2.01472 0 0 2.01472 0 4.5C 0 6.98528 2.01472 9 4.5 9Z"/>
<path id="path2_fill" d="M 2.5 1.25C 2.5 1.94036 1.94036 2.5 1.25 2.5C 0.559644 2.5 0 1.94036 0 1.25C 0 0.559644 0.559644 0 1.25 0C 1.94036 0 2.5 0.559644 2.5 1.25Z"/>
</defs>
</svg>
