<?xml version="1.0" encoding="utf-8"?>
<!-- Generator: Adobe Illustrator 21.0.0, SVG Export Plug-In . SVG Version: 6.00 Build 0)  -->
<svg version="1.1" id="Layer_1" xmlns="http://www.w3.org/2000/svg" xmlns:xlink="http://www.w3.org/1999/xlink" x="0px" y="0px"
	 width="278.3px" height="101px" viewBox="0 0 278.3 101" style="enable-background:new 0 0 278.3 101;" xml:space="preserve">
<style type="text/css">
	.st0{fill:#FFFFFF;}
</style>
<g>
	<g>
		<path class="st0" d="M20.8,32.2c3.1,0,6,0.7,8.6,2c-0.9,0.2-1.8,0.5-2.8,0.9c-3.8,2-7.7,6-11.6,12.1c-1-0.1-1.7-0.1-2.3-0.1
			c-2.6,0-4.8,0.5-6.5,1.6s-2.6,2.4-2.6,4c0,0.8,0.3,1.4,0.8,1.9c0.5,0.4,1.2,0.7,1.9,0.7c0.7,0,1.3-0.2,1.8-0.5s0.7-0.7,0.7-1.1
			c0-0.4-0.1-0.8-0.2-1.1c-0.1-0.3-0.3-0.4-0.4-0.4c0.3-0.8,0.9-1.3,1.8-1.7c0.9-0.3,2-0.6,3.4-0.6c-1,1.7-1.9,3.4-2.7,5.2
			c-2.1,4.5-3.4,8.3-3.8,11.1c-3.7-3.6-6-8.6-6-14.2C1.1,41,9.9,32.2,20.8,32.2L20.8,32.2z M33.6,37l-6.5,30.6h-6.4l3.4-16.2
			c-2-0.9-4-1.4-6-1.6c-2.7,5.9-4.5,11.4-5.4,16.3c-0.3,1.4-0.4,2.6-0.4,3.6c2.6,1.2,5.4,1.9,8.5,1.9c10.9,0,19.7-8.8,19.7-19.7
			C40.4,45.9,37.8,40.6,33.6,37L33.6,37z M19,47.8c2,0.4,3.8,0.9,5.4,1.5L27,37.2C24.5,38.6,21.8,42.2,19,47.8z"/>
		<g>
			<polygon class="st0" points="213.3,40.1 213.3,42.1 217.8,42.1 217.8,52.1 220.4,52.1 220.4,42.1 224.9,42.1 224.9,40.1 			"/>
			<path class="st0" d="M205.4,48.8c-0.3-0.5-0.4-1.3-0.4-2.5c0-1,0.1-1.8,0.2-2.3c0.4-1.3,1.3-1.9,2.9-1.9h4.3v-2h-5.1
				c-1.6,0-2.8,0.4-3.7,1.3c-0.9,0.9-1.4,2.5-1.4,4.9c0,2,0.4,3.5,1.1,4.4c0.8,1,2,1.5,3.6,1.5h5.8v-2h-4.3
				C206.8,50,205.8,49.6,205.4,48.8z"/>
			<path class="st0" d="M200.6,46.5c0.4-0.4,0.6-1,0.6-1.8c0-1.9-0.6-3.2-1.7-3.9c-0.8-0.5-2.1-0.8-4-0.8c-2.1,0-3.6,0.4-4.5,1.1
				c-0.6,0.5-1,1.2-1.2,2.1c-0.2,0.6-0.2,1.6-0.2,2.9c0,2.1,0.3,3.5,0.9,4.4c0.7,1,1.9,1.5,3.7,1.5h6.6v-2h-5.9
				c-1.4,0-2.2-0.5-2.4-1.4c-0.1-0.4-0.2-1-0.2-1.6h7C199.8,47,200.2,46.8,200.6,46.5z M197.8,44.9h-5.5c0-1,0.2-1.7,0.5-2.1
				c0.5-0.5,1.3-0.8,2.5-0.8c1,0,1.8,0.2,2.3,0.6c0.5,0.4,0.7,0.9,0.7,1.6C198.3,44.7,198.1,44.9,197.8,44.9z"/>
			<path class="st0" d="M187.8,45.2c0.4-0.4,0.5-1.1,0.5-2c0-1-0.2-1.7-0.6-2.2c-0.5-0.6-1.4-0.9-2.7-0.9h-5.4
				c-0.7,0-1.2,0.2-1.6,0.5c-0.4,0.3-0.5,0.8-0.5,1.4v8.3c0,0.6,0.2,1.1,0.5,1.3c0.3,0.3,0.8,0.4,1.6,0.4h5.7c1.1,0,1.9-0.3,2.5-0.8
				c0.5-0.5,0.8-1.4,0.8-2.6c0-0.9-0.2-1.6-0.5-2c-0.4-0.4-0.8-0.7-1.5-0.8l0,0C186.8,45.8,187.3,45.6,187.8,45.2z M185.1,49.7
				c-0.2,0.2-0.6,0.4-1.2,0.4h-3.3c-0.3,0-0.5-0.1-0.6-0.2c-0.1-0.1-0.1-0.3-0.1-0.5V47h4.1c0.5,0,0.9,0.1,1.1,0.4
				c0.2,0.2,0.3,0.6,0.3,1.2C185.6,49,185.4,49.4,185.1,49.7z M185.1,44.5c-0.2,0.2-0.6,0.4-1.1,0.4h-4.1v-2.1
				c0-0.2,0.1-0.4,0.2-0.5c0.1-0.1,0.3-0.1,0.5-0.1h3.5c0.5,0,0.8,0.1,1.1,0.3c0.2,0.2,0.4,0.6,0.4,1.1
				C185.6,44,185.4,44.3,185.1,44.5z"/>
			<polygon class="st0" points="172.8,44.9 167.1,44.9 167.1,40.1 164.4,40.1 164.4,52.1 167.1,52.1 167.1,46.9 172.8,46.9 
				172.8,52.1 175.4,52.1 175.4,40.1 172.8,40.1 			"/>
			<path class="st0" d="M160.1,36.1c-0.6,0-1,0.1-1.4,0.4c-0.4,0.3-0.8,0.7-1.2,1.4l-6.4,10.4c-0.2,0.3-0.3,0.5-0.4,0.5
				c-0.2,0-0.3-0.2-0.3-0.7l0.1-11.8h-3v13.3c0,1.8,0.8,2.7,2.3,2.7c0.7,0,1.3-0.2,1.7-0.5c0.2-0.2,0.5-0.5,0.8-1l6.5-10.5
				c0.3-0.5,0.5-0.7,0.6-0.7c0.2,0,0.2,0.2,0.2,0.5l-0.1,12h3V38.9C162.4,37,161.6,36.1,160.1,36.1z"/>
			<path class="st0" d="M137.8,39.9h-6.9V42h6c0.6,0,1,0.2,1.3,0.5c0.2,0.3,0.3,0.7,0.3,1.2v0.9h-5.3c-1,0-1.7,0.2-2.2,0.7
				c-0.7,0.6-1,1.6-1,3c0,1.6,0.4,2.7,1.1,3.3c0.5,0.4,1.2,0.6,2.2,0.6h5.8c0.8,0,1.4-0.2,1.7-0.5s0.5-0.8,0.5-1.6v-6.3
				C141.3,41.2,140.1,39.9,137.8,39.9z M138.6,49.4c0,0.2-0.1,0.4-0.2,0.5c-0.1,0.1-0.3,0.1-0.6,0.1h-3.7c-0.4,0-0.6-0.1-0.9-0.4
				c-0.2-0.3-0.4-0.7-0.4-1.3s0.1-1.1,0.3-1.3c0.2-0.3,0.5-0.4,1-0.4h4.5L138.6,49.4L138.6,49.4z"/>
			<path class="st0" d="M123.9,39.9h-4.3c-0.7,0-1.2,0.1-1.5,0.4c-0.5,0.4-0.7,0.9-0.7,1.5V56h2.7v-3.9h3.4c2,0,3.5-0.6,4.3-1.7
				c0.6-0.9,1-2.5,1-4.6s-0.4-3.6-1.3-4.5C126.8,40.3,125.6,39.9,123.9,39.9z M125.6,48.9c-0.5,0.8-1.3,1.1-2.3,1.1h-3.1v-7.5
				c0-0.2,0.1-0.3,0.2-0.4c0.1-0.1,0.2-0.2,0.4-0.2h2.6c1.2,0,1.9,0.5,2.3,1.4c0.2,0.5,0.3,1.4,0.3,2.6
				C126.1,47.4,125.9,48.4,125.6,48.9z"/>
			<path class="st0" d="M115.4,46.4c0.4-0.4,0.6-1,0.6-1.8c0-1.9-0.6-3.2-1.7-4c-0.8-0.5-2.2-0.8-4-0.8c-2.1,0-3.7,0.4-4.6,1.1
				c-0.6,0.5-1,1.2-1.2,2.1c-0.2,0.6-0.2,1.6-0.2,3c0,2.1,0.3,3.6,0.9,4.4c0.7,1,2,1.5,3.7,1.5h6.8v-2.1h-6c-1.4,0-2.2-0.5-2.5-1.4
				c-0.1-0.4-0.2-1-0.2-1.7h7.1C114.6,46.9,115.1,46.7,115.4,46.4z M112.6,44.8H107c0-1,0.2-1.7,0.6-2.1c0.5-0.5,1.3-0.8,2.6-0.8
				c1,0,1.8,0.2,2.3,0.6c0.5,0.4,0.8,0.9,0.8,1.6C113.2,44.6,113.1,44.8,112.6,44.8z"/>
			<polygon class="st0" points="91.8,42 96.4,42 96.4,52.1 99.1,52.1 99.1,42 103.8,42 103.8,39.9 91.8,39.9 			"/>
			<path class="st0" d="M90.4,44.5h-5.5v-4.6h-2.7v10.3c0,0.7,0.2,1.1,0.5,1.4c0.3,0.3,0.8,0.4,1.4,0.4h6.2c1.1,0,1.9-0.2,2.3-0.6
				c0.6-0.6,0.9-1.6,0.9-3s-0.3-2.4-0.8-3C92.1,44.8,91.4,44.5,90.4,44.5z M90.3,49.6c-0.2,0.3-0.6,0.4-1.2,0.4h-3.5
				c-0.3,0-0.5-0.1-0.6-0.2c-0.1-0.1-0.2-0.3-0.2-0.7v-2.6h4.4c0.5,0,0.9,0.1,1.1,0.4c0.2,0.2,0.3,0.7,0.3,1.3
				C90.8,48.9,90.6,49.4,90.3,49.6z"/>
			<path class="st0" d="M74.8,39.8c-0.9,0-1.5,0.3-1.8,1l-4.8,10.9l-5.9-14.1c-0.3-0.7-0.6-1.1-1-1.4c-0.4-0.3-0.9-0.4-1.6-0.4
				s-1.3,0.1-1.6,0.4c-0.4,0.3-0.7,0.7-1,1.4l-6.2,14.5h3.2l1.6-4.1h7.8l1.7,4.1h2.9h0.3h2.4l3.7-9.4c0.1-0.2,0.2-0.3,0.2-0.3
				c0.1,0,0.1,0.1,0.2,0.3l3.7,9.4h2.8l-4.9-11.3C76.3,40.1,75.8,39.8,74.8,39.8z M56.5,45.9l2.6-6.6c0.2-0.4,0.3-0.7,0.5-0.7
				c0.1,0,0.3,0.2,0.5,0.7l2.6,6.6H56.5z"/>
		</g>
	</g>
	<g>
		<path class="st0" d="M56.2,68.4H55v-8.1h-3.1v8.1h-1.2v-9h5.4L56.2,68.4L56.2,68.4z"/>
		<path class="st0" d="M62.7,65.2c0,2.5-0.7,3.3-2,3.3c-0.6,0-1.3-0.2-1.8-0.6c0,0.4,0,0.8,0,1.3V71h-1.1v-9h0.9l0.1,1
			c0.5-0.7,1.4-1.1,2.1-1.1C62.2,61.9,62.7,63,62.7,65.2z M61.6,65.2c0-1.8-0.3-2.4-1-2.4c-0.5,0-1,0.3-1.7,1v3.4
			c0.6,0.2,1,0.4,1.5,0.4C61.3,67.6,61.6,67.1,61.6,65.2z"/>
		<path class="st0" d="M68.8,65.2c0,2.5-0.7,3.4-2.5,3.4s-2.5-0.9-2.5-3.4c0-2.4,0.7-3.4,2.5-3.4S68.8,62.8,68.8,65.2z M65,65.2
			c0,1.9,0.3,2.4,1.3,2.4s1.3-0.6,1.3-2.4c0-1.9-0.3-2.4-1.3-2.4S65,63.3,65,65.2z"/>
		<path class="st0" d="M75.2,70.2h-0.7l-0.1-1.9h-4.1l-0.1,1.9h-0.7v-2.8h0.6c0.5-1.3,0.7-2.6,0.8-4c0.1-1,0.5-1.5,1.4-1.5h2.2v5.5
			h0.7C75.2,67.4,75.2,70.2,75.2,70.2z M73.4,62.9h-0.9c-0.4,0-0.6,0.3-0.6,0.8c-0.1,1.5-0.3,2.7-0.8,3.8h2.4L73.4,62.9L73.4,62.9z"
			/>
		<path class="st0" d="M80.8,63.9v4.5h-0.9l-0.1-1c-0.4,0.5-1.1,1.1-2,1.1c-0.9,0-1.6-0.6-1.6-1.8v-0.7c0-1,0.6-1.6,1.5-1.6h2v-0.6
			c0-0.8-0.2-1.1-1-1.1c-0.5,0-1.4,0.1-2.2,0.2l-0.1-0.8c0.7-0.1,1.8-0.3,2.5-0.3C80,61.9,80.8,62.4,80.8,63.9z M79.5,66.7v-1.4
			h-1.8c-0.5,0-0.6,0.3-0.6,0.9v0.4c0,0.7,0.2,1,0.7,1S79,67.2,79.5,66.7z"/>
		<path class="st0" d="M87.5,65.1c1.1,0.1,1.4,1.1,2,3.3h-1.1c-0.7-2-0.8-2.9-1.6-2.9h-0.7c0,0.2,0.1,0.4,0.1,0.6v2.3h-1v-2.3
			c0-0.2,0-0.4,0.1-0.6h-0.7c-0.8,0-1,0.9-1.6,2.9h-1.1c0.7-2.2,0.9-3.2,2-3.3l0,0c-1.1-0.1-1.3-1.2-1.8-3h1.1
			c0.5,1.7,0.8,2.6,1.5,2.6h0.7c0-0.2-0.1-0.5-0.1-0.7V62h1v1.9c0,0.3,0,0.5-0.1,0.7h0.6c0.8,0,1-1,1.5-2.6h1.1
			C88.8,63.9,88.6,64.9,87.5,65.1L87.5,65.1z"/>
		<path class="st0" d="M95,63.9v4.5h-0.9l-0.1-1c-0.4,0.5-1.1,1.1-2,1.1c-0.9,0-1.6-0.6-1.6-1.8v-0.7c0-1,0.6-1.6,1.5-1.6h2v-0.6
			c0-0.8-0.2-1.1-1-1.1c-0.5,0-1.4,0.1-2.2,0.2l-0.1-0.8c0.7-0.1,1.8-0.3,2.5-0.3C94.4,61.9,95,62.4,95,63.9z M93.9,66.7v-1.4h-1.8
			c-0.5,0-0.6,0.3-0.6,0.9v0.4c0,0.7,0.2,1,0.7,1C92.6,67.6,93.3,67.2,93.9,66.7z"/>
		<path class="st0" d="M103.4,59.6c-0.9,0.7-1.5,0.6-2.3,0.9c-1,0.4-1.2,1.2-1.4,2.1c-0.1,0.4-0.1,0.8-0.1,0.9l0,0
			c0.2-0.6,0.7-1.4,2-1.4c1.5,0,2.1,0.9,2.1,3.1c0,2-0.5,3.3-2.4,3.3c-2.3,0-2.4-1.7-2.4-4c0-2.8,0.3-4.3,1.9-4.9
			c0.9-0.3,1.6-0.2,2.5-0.9L103.4,59.6z M99.9,65.2c0,1.8,0.3,2.3,1.3,2.3c0.9,0,1.3-0.5,1.3-2.3c0-1.7-0.3-2.1-1.2-2.1
			C100.1,63.2,99.9,63.9,99.9,65.2z"/>
		<path class="st0" d="M108.8,68.4v-4c0-0.3,0-0.6,0-1l0,0c-0.1,0.3-0.2,0.6-0.4,0.9l-2.2,4.1h-1.1V62h1v4c0,0.3,0,0.6,0,1l0,0
			c0.1-0.3,0.3-0.6,0.4-0.8l2.2-4.2h1.1v6.4H108.8z"/>
		<path class="st0" d="M115.1,63.6c0,0.9-0.3,1.4-1.1,1.5l0,0c0.9,0.1,1.3,0.6,1.3,1.7c0,1.4-0.7,1.7-2.3,1.7
			c-0.7,0-1.5-0.1-2.2-0.2l0.1-0.9c0.6,0.1,1.3,0.1,2,0.1c0.9,0,1.2-0.2,1.2-1s-0.3-1-1.2-1h-1.3v-0.8h1.3c0.8,0,1.1-0.2,1.1-1
			c0-0.7-0.3-0.9-1.3-0.9c-0.6,0-1.2,0-1.6,0.1l-0.1-0.9c0.6-0.2,1.2-0.2,1.7-0.2C114.4,61.9,115.1,62.2,115.1,63.6z"/>
		<path class="st0" d="M121.2,68.4h-1.1v-3h-2.4v3h-1.1V62h1.1v2.6h2.4V62h1.1V68.4z"/>
		<path class="st0" d="M127.1,67.4l0.1,0.7c-0.5,0.2-1.4,0.4-2.1,0.4c-1.8,0-2.5-0.9-2.5-3.4c0-2.5,0.7-3.3,2.4-3.3
			c1.6,0,2.3,0.7,2.3,2.1c0,1.1-0.4,1.8-1.3,1.8h-2.3c0.1,1.5,0.5,1.9,1.5,1.9C125.8,67.6,126.6,67.4,127.1,67.4z M123.8,64.9h2
			c0.4,0,0.5-0.5,0.5-0.9c0-0.8-0.3-1.1-1.1-1.1C124.1,62.8,123.8,63.3,123.8,64.9z"/>
		<path class="st0" d="M132.6,62.2l-0.1,0.7c-0.5-0.1-1-0.1-1.4-0.1c-1.1,0-1.5,0.5-1.5,2.4c0,1.9,0.4,2.4,1.5,2.4
			c0.3,0,1,0,1.5-0.1l0.1,0.7c-0.5,0.2-1.2,0.3-1.8,0.3c-1.8,0-2.5-0.9-2.5-3.4c0-2.5,0.7-3.3,2.5-3.3
			C131.3,61.9,132.1,61.9,132.6,62.2z"/>
		<path class="st0" d="M138.1,63.9v4.5h-0.9l-0.1-1c-0.4,0.5-1.1,1.1-2,1.1s-1.6-0.6-1.6-1.8v-0.7c0-1,0.6-1.6,1.5-1.6h2v-0.6
			c0-0.8-0.2-1.1-1-1.1c-0.5,0-1.4,0.1-2.2,0.2l-0.1-0.8c0.7-0.1,1.8-0.3,2.5-0.3C137.6,61.9,138.1,62.4,138.1,63.9z M137.1,66.7
			v-1.4h-1.8c-0.5,0-0.6,0.3-0.6,0.9v0.4c0,0.7,0.2,1,0.7,1S136.4,67.2,137.1,66.7z"/>
		<path class="st0" d="M145.8,68.4v-4c0-0.3,0-0.6,0-1l0,0c-0.1,0.3-0.2,0.6-0.4,0.9l-2.2,4.1h-1.1V62h1v4c0,0.3,0,0.6,0,1l0,0
			c0.1-0.3,0.3-0.6,0.4-0.8l2.2-4.2h1.1v6.4H145.8z"/>
		<path class="st0" d="M154.2,68.4v2.5h-1v-2.5c-2-0.1-2.8-1.1-2.8-3.3c0-2.2,0.8-3.2,2.8-3.3v-2.6h1v2.6c2,0.1,2.8,1.1,2.8,3.3
			C157.1,67.4,156.2,68.4,154.2,68.4z M153.2,67.6v-4.8c-1.3,0.1-1.8,0.7-1.8,2.4C151.4,66.9,151.9,67.4,153.2,67.6z M154.1,67.6
			c1.3-0.1,1.8-0.7,1.8-2.4c0-1.7-0.4-2.3-1.8-2.4V67.6z"/>
		<path class="st0" d="M163.2,65.2c0,2.5-0.7,3.3-2,3.3c-0.6,0-1.3-0.2-1.8-0.6c0,0.4,0,0.8,0,1.3V71h-1.1v-9h0.9l0.1,1
			c0.5-0.7,1.4-1.1,2.1-1.1C162.8,61.9,163.2,63,163.2,65.2z M162.1,65.2c0-1.8-0.3-2.4-1-2.4c-0.5,0-1,0.3-1.7,1v3.4
			c0.6,0.2,1,0.4,1.5,0.4C161.8,67.6,162.1,67.1,162.1,65.2z"/>
		<path class="st0" d="M168.9,63.9v4.5h-0.9l-0.1-1c-0.4,0.5-1.1,1.1-2,1.1s-1.6-0.6-1.6-1.8v-0.7c0-1,0.6-1.6,1.5-1.6h2v-0.6
			c0-0.8-0.2-1.1-1-1.1c-0.5,0-1.4,0.1-2.2,0.2l-0.1-0.8c0.7-0.1,1.8-0.3,2.5-0.3C168.2,61.9,168.9,62.4,168.9,63.9z M167.8,66.7
			v-1.4H166c-0.5,0-0.6,0.3-0.6,0.9v0.4c0,0.7,0.2,1,0.7,1C166.6,67.6,167.2,67.2,167.8,66.7z"/>
		<path class="st0" d="M175.1,68.4h-1.1v-3h-2.4v3h-1.1V62h1.1v2.6h2.4V62h1.1V68.4z"/>
		<path class="st0" d="M183.6,68.4h-7V62h1.1v5.5h1.9V62h1v5.5h2V62h1.1v6.4H183.6z"/>
		<path class="st0" d="M188.9,68.4v-4c0-0.3,0-0.6,0-1l0,0c-0.1,0.3-0.2,0.6-0.4,0.9l-2.2,4.1h-1.1V62h1v4c0,0.3,0,0.6,0,1l0,0
			c0.1-0.3,0.3-0.6,0.4-0.8l2.2-4.2h1.1v6.4H188.9z"/>
		<path class="st0" d="M195.3,63.6c0,0.9-0.3,1.4-1.1,1.5l0,0c0.9,0.1,1.3,0.6,1.3,1.7c0,1.4-0.7,1.7-2.3,1.7
			c-0.7,0-1.5-0.1-2.2-0.2l0.1-0.9c0.6,0.1,1.3,0.1,2,0.1c0.9,0,1.2-0.2,1.2-1s-0.3-1-1.2-1h-1.3v-0.8h1.3c0.8,0,1.1-0.2,1.1-1
			c0-0.7-0.3-0.9-1.3-0.9c-0.6,0-1.2,0-1.6,0.1l-0.1-0.9c0.6-0.2,1.2-0.2,1.7-0.2C194.6,61.9,195.3,62.2,195.3,63.6z"/>
		<path class="st0" d="M197.4,66.8c0.3,0,0.4,0.1,0.4,0.4v0.7c0,0.3-0.1,0.4-0.4,0.4h-0.4c-0.3,0-0.4-0.1-0.4-0.4v-0.7
			c0-0.3,0.1-0.4,0.4-0.4H197.4z"/>
		<path class="st0" d="M208.8,59.3c0.3,0,0.5,0.2,0.5,0.5l0.3,8.6h-1.1l-0.2-8.1h-0.3l-1.4,6.7c-0.1,0.2-0.2,0.4-0.5,0.4h-1
			c-0.3,0-0.4-0.1-0.5-0.4l-1.4-6.7h-0.2l-0.2,8.1h-1.1l0.3-8.6c0-0.3,0.2-0.5,0.5-0.5h1.3c0.2,0,0.4,0.1,0.5,0.4l1.2,5.5l0.2,1.2
			h0.2c0.1-0.4,0.2-0.8,0.2-1.2l1.1-5.5c0.1-0.3,0.2-0.4,0.5-0.4H208.8z"/>
		<path class="st0" d="M217.9,68.2c-0.3,0.1-0.9,0.2-1.2,0.2c-0.7,0-1.2-0.4-1.3-1.1c-0.6,0.8-1.3,1.1-2.4,1.1
			c-1.5,0-2.1-0.6-2.1-2.4c0-1.4,0.4-2.3,1.4-2.4v-0.1c-0.9-0.1-1.2-0.8-1.2-2.1c0-2.1,0.8-2.3,2.8-2.3c0.4,0,1.1,0,1.7,0.1
			l-0.1,0.9c-0.3,0-1,0-1.6,0c-1.2,0-1.6,0.2-1.6,1.6c0,1.2,0.3,1.5,1.3,1.5h1.9l0.1-1.7h0.9v1.7h1.3v0.9h-1.3v2.5
			c0,0.6,0.2,0.9,0.6,0.9h0.7L217.9,68.2z M215.3,66.4v-2.4h-1.9c-1,0-1.4,0.4-1.4,1.8c0,1.2,0.3,1.6,1.2,1.6S214.8,67.2,215.3,66.4
			z"/>
		<path class="st0" d="M220.3,65.6l-0.7,2.8h-1.2l2.3-8.7c0.1-0.2,0.2-0.3,0.4-0.3h1.2c0.2,0,0.4,0.1,0.4,0.3l2.2,8.7h-1.2l-0.7-2.8
			H220.3z M222.1,61c-0.1-0.2-0.1-0.5-0.2-0.7h-0.3l-0.2,0.7l-0.9,3.6h2.3L222.1,61z"/>
	</g>
</g>
</svg>
