<svg width="22" height="22" viewBox="0 0 22 22" version="1.1" xmlns="http://www.w3.org/2000/svg" xmlns:xlink="http://www.w3.org/1999/xlink">
<title>Vector 5 (Stroke)</title>
<desc>Created using Figma</desc>
<g id="Canvas" transform="translate(-6492 1946)">
<g id="Vector 5 (Stroke)">
<use xlink:href="#path0_fill" transform="matrix(0.999756 0.0221023 -0.0221023 0.999756 6493.44 -1945.18)"/>
</g>
</g>
<defs>
<path id="path0_fill" fill-rule="evenodd" d="M 16.856 0.156049C 18.4913 -0.517219 20.1315 1.10724 19.4742 2.74891L 13.05 18.7919C 12.4994 20.1668 10.6975 20.4871 9.70671 19.3863L 6.49196 15.8144C 5.85273 15.1041 5.80521 14.0409 6.37855 13.2764L 6.52453 13.0818L 6.36593 13.2007C 5.56969 13.7979 4.4555 13.7187 3.75171 13.0149L 0.586352 9.84958C -0.422818 8.84041 -0.080579 7.12935 1.23912 6.58599L 16.856 0.156049ZM 17.6175 2.00543L 2.00057 8.43537L 5.16593 11.6007L 10.9245 7.28178L 12.3245 8.68178L 7.97855 14.4764L 11.1933 18.0484L 17.6175 2.00543Z"/>
</defs>
</svg>
